<?xml version="1.0" encoding="UTF-8" standalone="no"?>
<!DOCTYPE svg PUBLIC "-//W3C//DTD SVG 1.1//EN" "http://www.w3.org/Graphics/SVG/1.1/DTD/svg11.dtd">
<svg width="100%" height="100%" viewBox="0 0 371 398" version="1.1" xmlns="http://www.w3.org/2000/svg" xmlns:xlink="http://www.w3.org/1999/xlink" xml:space="preserve" xmlns:serif="http://www.serif.com/" style="fill-rule:evenodd;clip-rule:evenodd;stroke-linejoin:round;stroke-miterlimit:2;">
    <g transform="matrix(1,0,0,1,-111.74,-208.33)">
        <rect x="111.74" y="208.33" width="371.79" height="398.72" style="fill:rgb(203,226,162);"/>
    </g>
    <g transform="matrix(1,0,0,1,-111.74,-208.33)">
        <path d="M133.54,404.49C148.92,489.11 297.64,587.82 297.64,587.82L297.64,223.72C156.61,223.72 117.25,314.93 133.54,404.49Z" style="fill:rgb(167,190,134);fill-rule:nonzero;"/>
    </g>
    <g transform="matrix(1,0,0,1,-111.74,-208.33)">
        <path d="M461.74,404.49C478.02,314.93 438.66,223.72 297.64,223.72L297.64,587.82C297.64,587.82 446.36,489.1 461.74,404.49Z" style="fill:rgb(129,149,109);fill-rule:nonzero;"/>
    </g>
    <g transform="matrix(1,0,0,1,-111.74,-208.33)">
        <rect x="189.3" y="310.26" width="216.67" height="157.69" style="fill:rgb(157,177,124);"/>
    </g>
    <g transform="matrix(1,0,0,1,-111.74,-208.33)">
        <path d="M296.77,331.81C246.6,289.92 198.6,341.26 223.02,389.8C252.17,447.75 296.77,462.19 296.77,462.19C296.77,462.19 341.38,447.76 370.52,389.8C394.94,341.25 346.94,289.92 296.77,331.81Z" style="fill:white;fill-rule:nonzero;"/>
    </g>
</svg>
