<?xml version="1.0" encoding="utf-8"?>
<!-- Generator: Adobe Illustrator 24.3.0, SVG Export Plug-In . SVG Version: 6.00 Build 0)  -->
<svg version="1.1" id="Layer_1" xmlns="http://www.w3.org/2000/svg" xmlns:xlink="http://www.w3.org/1999/xlink" x="0px" y="0px"
	 viewBox="0 0 368.5 368.5" style="enable-background:new 0 0 368.5 368.5;" xml:space="preserve">
<style type="text/css">
	.st0{fill:#CBE2A2;}
	.st1{fill:#A7BE86;}
	.st2{fill:#81956D;}
	.st3{fill:#9DB17C;}
	.st4{fill:#FFFFFF;}
</style>
<rect class="st0" width="368.5" height="368.5"/>
<path class="st1" d="M21.6,183.1c15.2,78.2,162.7,169.4,162.7,169.4V16C44.5,16,5.5,100.3,21.6,183.1z"/>
<path class="st2" d="M346.9,183.1C363,100.3,324,16,184.3,16v336.5C184.3,352.5,331.7,261.3,346.9,183.1z"/>
<rect x="76.9" y="111.4" class="st3" width="214.8" height="145.7"/>
<path class="st4" d="M183.4,131.1c-49.7-38.7-97.3,8.7-73.1,53.6c28.9,53.6,73.1,66.9,73.1,66.9s44.2-13.3,73.1-66.9
	C280.7,139.9,233.1,92.4,183.4,131.1z"/>
</svg>
